{
  "streams": [
    {
      "index": 0,
      "codec_name": "h264",
      "codec_long_name": "H.264 / AVC / MPEG-4 AVC / MPEG-4 part 10",
      "profile": "High",
      "codec_type": "video",
      "codec_tag_string": "avc1",
      "codec_tag": "0x31637661",
      "width": 608,
      "height": 1080,
      "coded_width": 608,
      "coded_height": 1080,
      "has_b_frames": 2,
      "sample_aspect_ratio": "1215:1216",
      "display_aspect_ratio": "9:16",
      "pix_fmt": "yuv420p",
      "level": 31,
      "color_range": "tv",
      "color_space": "bt709",
      "color_transfer": "bt709",
      "color_primaries": "bt709",
      "chroma_location": "left",
      "field_order": "progressive",
      "refs": 1,
      "is_avc": "true",
      "nal_length_size": "4",
      "id": "0x1",
      "r_frame_rate": "30/1",
      "avg_frame_rate": "30/1",
      "time_base": "1/15360",
      "start_pts": 0,
      "start_time": "0.000000",
      "duration_ts": 2764800,
      "duration": "180.000000",
      "bit_rate": "422411",
      "bits_per_raw_sample": "8",
      "nb_frames": "5400",
      "extradata_size": 54,
      "disposition": {
        "default": 1,
        "dub": 0,
        "original": 0,
        "comment": 0,
        "lyrics": 0,
        "karaoke": 0,
        "forced": 0,
        "hearing_impaired": 0,
        "visual_impaired": 0,
        "clean_effects": 0,
        "attached_pic": 0,
        "timed_thumbnails": 0,
        "non_diegetic": 0,
        "captions": 0,
        "descriptions": 0,
        "metadata": 0,
        "dependent": 0,
        "still_image": 0,
        "multilayer": 0
      },
      "tags": {
        "language": "und",
        "handler_name": "VideoHandler",
        "vendor_id": "[0][0][0][0]",
        "encoder": "Lavc61.19.100 libx264",
        "timecode": "00:00:00:00"
      }
    },
    {
      "index": 1,
      "codec_name": "aac",
      "codec_long_name": "AAC (Advanced Audio Coding)",
      "profile": "LC",
      "codec_type": "audio",
      "codec_tag_string": "mp4a",
      "codec_tag": "0x6134706d",
      "sample_fmt": "fltp",
      "sample_rate": "48000",
      "channels": 2,
      "channel_layout": "stereo",
      "bits_per_sample": 0,
      "initial_padding": 0,
      "id": "0x2",
      "r_frame_rate": "0/0",
      "avg_frame_rate": "0/0",
      "time_base": "1/48000",
      "start_pts": 0,
      "start_time": "0.000000",
      "duration_ts": 8640480,
      "duration": "180.010000",
      "bit_rate": "129006",
      "nb_frames": "8439",
      "extradata_size": 5,
      "disposition": {
        "default": 1,
        "dub": 0,
        "original": 0,
        "comment": 0,
        "lyrics": 0,
        "karaoke": 0,
        "forced": 0,
        "hearing_impaired": 0,
        "visual_impaired": 0,
        "clean_effects": 0,
        "attached_pic": 0,
        "timed_thumbnails": 0,
        "non_diegetic": 0,
        "captions": 0,
        "descriptions": 0,
        "metadata": 0,
        "dependent": 0,
        "still_image": 0,
        "multilayer": 0
      },
      "tags": {
        "language": "eng",
        "handler_name": "Apple Sound Media Handler",
        "vendor_id": "[0][0][0][0]"
      }
    },
    {
      "index": 2,
      "codec_type": "data",
      "codec_tag_string": "tmcd",
      "codec_tag": "0x64636d74",
      "id": "0x3",
      "r_frame_rate": "0/0",
      "avg_frame_rate": "15360/512",
      "time_base": "1/15360",
      "start_pts": 0,
      "start_time": "0.000000",
      "duration_ts": 2764800,
      "duration": "180.000000",
      "nb_frames": "1",
      "extradata_size": 20,
      "disposition": {
        "default": 0,
        "dub": 0,
        "original": 0,
        "comment": 0,
        "lyrics": 0,
        "karaoke": 0,
        "forced": 0,
        "hearing_impaired": 0,
        "visual_impaired": 0,
        "clean_effects": 0,
        "attached_pic": 0,
        "timed_thumbnails": 0,
        "non_diegetic": 0,
        "captions": 0,
        "descriptions": 0,
        "metadata": 0,
        "dependent": 0,
        "still_image": 0,
        "multilayer": 0
      },
      "tags": {
        "language": "eng",
        "handler_name": "VideoHandler",
        "timecode": "00:00:00:00"
      }
    }
  ]
}
